<?xml version="1.0" encoding="iso-8859-1"?>
<!-- Generator: Adobe Illustrator 19.0.0, SVG Export Plug-In . SVG Version: 6.00 Build 0)  -->
<svg version="1.1" id="Layer_1" xmlns="http://www.w3.org/2000/svg" xmlns:xlink="http://www.w3.org/1999/xlink" x="0px" y="0px"
	 viewBox="0 0 512 512" style="enable-background:new 0 0 512 512;" xml:space="preserve">
<g>
	<path style="fill:#FFBE26;" d="M319.654,220.483h-16.605v-71.035c0-73.25-59.593-132.843-132.843-132.843
		S37.362,76.199,37.362,149.449v71.035H20.757v-71.035C20.757,67.043,87.799,0,170.205,0s149.449,67.043,149.449,149.449V220.483z"
		/>
	<polygon style="fill:#FFBE26;" points="319.65,246.314 316.882,279.524 251.08,312.735 286.439,246.314 	"/>
	<polygon style="fill:#FFBE26;" points="303.044,445.578 297.509,512 269.225,512 251.39,423.438 	"/>
</g>
<g>
	<polygon style="fill:#FFD46E;" points="273.531,445.578 269.225,512 42.893,512 37.358,445.578 155.444,412.368 	"/>
	<polygon style="fill:#FFD46E;" points="286.439,246.314 284.291,279.524 153.906,312.735 23.52,279.524 20.752,246.314 	"/>
</g>
<polygon style="fill:#AAE8FF;" points="284.291,279.524 273.531,445.578 37.358,445.578 23.52,279.524 "/>
<g>
	<polygon style="fill:#55D0FF;" points="316.882,279.524 303.044,445.578 273.531,445.578 284.291,279.524 	"/>
	<path style="fill:#55D0FF;" d="M319.654,213.103h-33.211v33.211h33.211c9.166,0,16.605-7.428,16.605-16.605
		C336.259,220.542,328.82,213.103,319.654,213.103z"/>
</g>
<g>
	<path style="fill:#AAE8FF;" d="M286.443,213.103c9.166,0,16.605,7.439,16.605,16.605c0,9.177-7.439,16.605-16.605,16.605H20.757
		c-9.166,0-16.605-7.428-16.605-16.605c0-9.166,7.439-16.605,16.605-16.605H286.443z"/>
	<rect x="424.822" y="363.813" style="fill:#AAE8FF;" width="33.211" height="68.879"/>
</g>
<polygon style="fill:#FFBE26;" points="458.032,8.303 491.243,119.005 424.822,141.146 446.962,8.303 "/>
<polygon style="fill:#FFD46E;" points="446.962,8.303 458.032,119.005 424.822,141.146 391.611,119.005 424.822,8.303 "/>
<polygon style="fill:#FFBE26;" points="491.243,141.146 491.245,388.25 458.035,388.25 424.822,141.146 "/>
<rect x="391.611" y="141.146" style="fill:#FFD46E;" width="66.422" height="247.1"/>
<path style="fill:#55D0FF;" d="M491.243,119.005h-33.211v33.211h33.211c9.166,0,16.605-7.428,16.605-16.605
	C507.849,126.445,500.409,119.005,491.243,119.005z"/>
<path style="fill:#AAE8FF;" d="M458.032,119.005c9.166,0,16.605,7.439,16.605,16.605c0,9.177-7.439,16.605-16.605,16.605h-66.422
	c-9.177,0-16.605-7.428-16.605-16.605c0-9.166,7.428-16.605,16.605-16.605H458.032z"/>
<path style="fill:#FFBE26;" d="M491.243,396.553h-99.632c-4.585,0-8.303-3.717-8.303-8.303s3.717-8.303,8.303-8.303h99.632
	c4.585,0,8.303,3.717,8.303,8.303S495.829,396.553,491.243,396.553z"/>
<path style="fill:#55D0FF;" d="M441.427,512c-25.943,0-47.049-21.107-47.049-47.05s21.105-47.05,47.049-47.05
	s47.049,21.107,47.049,47.05S467.37,512,441.427,512z M441.427,434.505c-16.787,0-30.443,13.657-30.443,30.444
	s13.656,30.444,30.443,30.444s30.443-13.657,30.443-30.444S458.214,434.505,441.427,434.505z"/>
<g>
</g>
<g>
</g>
<g>
</g>
<g>
</g>
<g>
</g>
<g>
</g>
<g>
</g>
<g>
</g>
<g>
</g>
<g>
</g>
<g>
</g>
<g>
</g>
<g>
</g>
<g>
</g>
<g>
</g>
</svg>
