<?xml version="1.0" encoding="iso-8859-1"?>
<!-- Generator: Adobe Illustrator 19.0.0, SVG Export Plug-In . SVG Version: 6.00 Build 0)  -->
<svg version="1.1" id="Layer_1" xmlns="http://www.w3.org/2000/svg" xmlns:xlink="http://www.w3.org/1999/xlink" x="0px" y="0px"
	 viewBox="0 0 512 512" style="enable-background:new 0 0 512 512;" xml:space="preserve">
<path style="fill:#6E0023;" d="M256,0C114.615,0,0,114.615,0,256c0,113.837,74.302,210.32,177.054,243.596l334.651-255.984
	C505.243,107.98,393.232,0,256,0z"/>
<path style="fill:#430016;" d="M512,256c0-4.154-0.108-8.282-0.303-12.388L348.829,80.745l-10.834,23.511L256,22.261L161.555,339.87
	l74.852,74.852l-108.189,36.013l48.843,48.843C201.926,507.63,228.451,512,256,512C397.384,512,512,397.384,512,256z"/>
<path style="fill:#ED3929;" d="M354.783,378.991H157.217v83.478h197.565c23.05,0,41.739-18.689,41.739-41.739
	C396.522,397.68,377.833,378.991,354.783,378.991z"/>
<g>
	<rect x="177.664" y="409.6" style="fill:#D62109;" width="111.716" height="22.261"/>
	<rect x="311.652" y="409.6" style="fill:#D62109;" width="22.261" height="22.261"/>
</g>
<path style="fill:#EDD4B8;" d="M115.478,420.73c0,23.052,18.687,41.739,41.739,41.739l10.435-41.739l-10.435-41.739
	C134.165,378.991,115.478,397.678,115.478,420.73z"/>
<path style="fill:#EDBF8C;" d="M157.217,378.991v83.478c23.052,0,41.739-18.687,41.739-41.739S180.27,378.991,157.217,378.991z"/>
<circle style="fill:#FFFFFF;" cx="157.217" cy="420.73" r="20.035"/>
<path style="fill:#ED004C;" d="M383.932,206.964L348.828,80.745l-33.489,20.934L256,22.261l-22.261,178.365L256,378.991
	c73.766,0,133.565-59.8,133.565-133.565C389.565,232.052,387.588,219.145,383.932,206.964z"/>
<path style="fill:#ED663E;" d="M196.661,101.679l-33.489-20.934l-35.104,126.219c-3.656,12.181-5.633,25.088-5.633,38.462
	c0,73.766,59.8,133.565,133.565,133.565V22.261L196.661,101.679z"/>
<path style="fill:#C3003E;" d="M362.607,213.359c3.116,10.374,4.697,21.17,4.697,32.067c0,61.373-49.931,111.304-111.304,111.304
	l-33.391-110.005L256,59.448l53.771,71.969l25.589-16.006l27.192,97.736L362.607,213.359z"/>
<path style="fill:#ED3929;" d="M256,59.448V356.73c-61.373,0-111.304-49.931-111.304-111.304c0-10.897,1.581-21.693,4.697-32.067
	l0.122-0.434l27.125-97.514l25.589,16.006L256,59.448z"/>
<path style="fill:#EDA960;" d="M315.897,226.601c9.59,12.868,14.669,28.248,14.669,44.433c0,41.116-33.45,74.566-74.566,74.566
	l-33.391-99.577L256,146.445L315.897,226.601z"/>
<path style="fill:#EDD4B8;" d="M256,146.444V345.6c-41.116,0-74.566-33.45-74.566-74.566c0-16.185,5.079-31.565,14.707-44.481
	L256,146.444z"/>
<g>
</g>
<g>
</g>
<g>
</g>
<g>
</g>
<g>
</g>
<g>
</g>
<g>
</g>
<g>
</g>
<g>
</g>
<g>
</g>
<g>
</g>
<g>
</g>
<g>
</g>
<g>
</g>
<g>
</g>
</svg>
